<?xml version="1.0" standalone="no"?>
<!DOCTYPE svg PUBLIC "-//W3C//DTD SVG 20010904//EN"
 "http://www.w3.org/TR/2001/REC-SVG-20010904/DTD/svg10.dtd">
<svg version="1.0" xmlns="http://www.w3.org/2000/svg"
 width="426.000000pt" height="426.000000pt" viewBox="0 0 426.000000 426.000000"
 preserveAspectRatio="xMidYMid meet">
<metadata>
Created by potrace 1.14, written by Peter Selinger 2001-2017
</metadata>
<g transform="translate(0.000000,426.000000) scale(0.100000,-0.100000)"
fill="#000000" stroke="none">
<path d="M1975 4233 c-52 -5 -209 -25 -235 -30 -306 -55 -653 -208 -905 -402
-301 -230 -540 -543 -678 -886 -111 -276 -157 -532 -151 -835 10 -552 223
-1049 619 -1445 336 -337 785 -554 1260 -610 107 -13 379 -12 486 1 715 87
1324 505 1651 1134 162 310 240 650 232 1010 -3 161 -5 177 -30 325 -55 319
-189 627 -387 889 -87 115 -93 122 -202 231 -250 251 -558 434 -900 536 -86
26 -202 49 -360 74 -43 7 -351 13 -400 8z"/>
</g>
</svg>
